<svg width="16" height="16" viewBox="0 0 16 16" fill="none" xmlns="http://www.w3.org/2000/svg">
<path fill-rule="evenodd" clip-rule="evenodd" d="M3 2H13C14.1046 2 15 2.89543 15 4V12C15 13.0985 14.1144 13.9901 13.0183 13.9999L13.0001 14H13H7.00008H3C1.89543 14 1 13.1046 1 12V4C1 2.89543 1.89543 2 3 2ZM14 11.2748L11.4045 7.70591C11.2048 7.43136 10.7954 7.43136 10.5957 7.70591L6.74547 13H3C2.44772 13 2 12.5523 2 12V4C2 3.44772 2.44772 3 3 3H13C13.5523 3 14 3.44772 14 4V11.2748ZM13 13C13.3001 13 13.5758 12.8667 13.762 12.6479L11 8.85009L7.98184 13H13ZM6 9C7.10457 9 8 8.10457 8 7C8 5.89543 7.10457 5 6 5C4.89543 5 4 5.89543 4 7C4 8.10457 4.89543 9 6 9ZM6 8C5.44772 8 5 7.55228 5 7C5 6.44772 5.44772 6 6 6C6.55228 6 7 6.44772 7 7C7 7.55228 6.55228 8 6 8Z" fill="#575757"/>
</svg>
